<?xml version="1.0" encoding="utf-8"?><svg viewBox="0 0 208 120" xmlns="http://www.w3.org/2000/svg" xmlns:xlink="http://www.w3.org/1999/xlink"><style>:root>svg{display:none}:root>svg:target{display:block}</style><svg fill="none" viewBox="0 0 101 120" id="arrow" xmlns="http://www.w3.org/2000/svg"><path fill-rule="evenodd" clip-rule="evenodd" d="M72.848 115.43a.904.904 0 00-.444-1.2c-3.526-1.623-7.066-3.067-10.538-4.482-2.489-1.015-4.942-2.015-7.329-3.057-5.778-2.521-11.359-5.36-16.727-9.443-9.609-7.308-17.647-16.653-21.724-28.07-2.103-5.89-2.94-12.982-1.813-19.508 1.125-6.518 4.192-12.402 9.832-16.034 2.86-1.842 6.238-3.102 9.835-3.787a34.194 34.194 0 00-3.403 10.153c-1.499 8.813 4.507 15.01 11.89 17.536 7.353 2.516 16.5 1.559 21.75-4.297 2.826-3.15 3.79-6.717 3.183-10.156-.602-3.412-2.73-6.595-5.896-9.074-5.097-3.989-11.988-6.185-18.914-6.536a38.65 38.65 0 00-5.143.08c5.228-7.809 13.55-13.333 22.47-17.38a.905.905 0 10-.747-1.647c-9.508 4.313-18.617 10.4-24.043 19.293-4.345.639-8.485 2.055-11.962 4.294-6.175 3.977-9.449 10.376-10.635 17.248-1.185 6.864-.304 14.272 1.892 20.423 4.227 11.837 12.53 21.448 22.333 28.902 5.53 4.206 11.257 7.112 17.099 9.662 2.488 1.085 4.964 2.094 7.452 3.108 3.417 1.391 6.856 2.792 10.382 4.416a.905.905 0 001.2-.444zM36.199 29.497a36.576 36.576 0 016.259-.215c6.636.336 13.146 2.44 17.89 6.154 2.899 2.269 4.723 5.085 5.23 7.963.504 2.853-.266 5.868-2.747 8.634-4.612 5.142-12.901 6.16-19.819 3.794-6.888-2.357-11.988-7.9-10.692-15.521.68-4 2.024-7.587 3.88-10.81z" fill="#4B4B4B"/><path fill-rule="evenodd" clip-rule="evenodd" d="M66.782 116.612a.905.905 0 00.858.949l.22.011c.722.039 2.595.139 4.368.16.997.012 1.994-.001 2.747-.068.367-.033.73-.083 1.02-.171a1.61 1.61 0 00.513-.249c.192-.148.48-.478.412-.969-.096-.699-.536-1.284-.944-1.721-.426-.456-.953-.89-1.41-1.263l-.037-.031c-.467-.382-.845-.692-1.104-.968a1.599 1.599 0 01-.192-.236.904.904 0 00-1.782-.28c-.098.412.01.782.145 1.054.133.266.324.502.51.7.343.366.808.746 1.23 1.091l.085.07c.472.386.903.745 1.232 1.097l.074.081c-.65.053-1.535.065-2.478.054a108.966 108.966 0 01-4.519-.169.905.905 0 00-.948.858zm8.718-.86l-.006.002a.024.024 0 00.006-.002z" fill="#4B4B4B"/></svg><svg fill="none" viewBox="0 0 22 16" id="check" xmlns="http://www.w3.org/2000/svg"><path d="M21.522.487c.637.599.637 1.647 0 2.246L8.964 15.513a1.495 1.495 0 01-2.207 0L.478 9.123a1.558 1.558 0 010-2.246 1.495 1.495 0 012.208 0l5.15 5.242L19.314.487a1.495 1.495 0 012.208 0z" fill="#0E96A7"/></svg><svg fill="none" viewBox="0 0 60 45" id="industrial-1" xmlns="http://www.w3.org/2000/svg"><path d="M58.125 37.5H7.5V1.875C7.5.937 6.562 0 5.625 0h-3.75C.82 0 0 .938 0 1.875V41.25C0 43.36 1.64 45 3.75 45h54.375c.938 0 1.875-.82 1.875-1.875v-3.75c0-.938-.938-1.875-1.875-1.875zm-3.75-33.75H40.43c-2.461 0-3.75 3.047-1.992 4.805l3.867 3.867-8.555 8.555-8.672-8.555c-1.406-1.524-3.867-1.524-5.273 0l-8.086 8.086a1.839 1.839 0 000 2.578l2.695 2.695a1.839 1.839 0 002.578 0l5.508-5.39 8.555 8.554c1.406 1.524 3.867 1.524 5.273 0l11.25-11.25 3.867 3.867c1.758 1.758 4.688.47 4.688-1.992V5.625c.117-.938-.82-1.875-1.758-1.875z" fill="#0E96A7"/></svg><svg fill="none" viewBox="0 0 62 37" id="industrial-10" xmlns="http://www.w3.org/2000/svg"><path d="M42.044 0h-8.331c-.776 0-1.454.289-2.035.866l-9.59 8.658c-1.55 1.539-1.55 3.944-.194 5.387 1.25 1.337 3.741 1.726 5.389.32.023-.02.017-.031.047-.031.032 0 .099-.012.122-.034l7.617-6.989c.678-.577 1.647-.577 2.228.096.581.577.581 1.54-.097 2.117a2.932 2.932 0 00.146 4.447l11.443 9.184a.343.343 0 01.062.067c.173.24.652.045.652-.25V8.256a5.044 5.044 0 00-1.49-3.579L44.272.962C43.69.385 42.916 0 42.044 0zM57.35 6.253a4.65 4.65 0 00-4.65 4.65v16.899c0 1.635 1.356 3.078 3.1 3.078a6.2 6.2 0 006.2-6.2V10.903a4.65 4.65 0 00-4.65-4.65zm0 21.549c-.872 0-1.55-.77-1.55-1.54 0-.865.678-1.539 1.55-1.539.775 0 1.55.674 1.55 1.54 0 .77-.775 1.539-1.55 1.539zM0 24.584a6.2 6.2 0 006.2 6.2c1.647 0 3.1-1.347 3.1-3.078V10.903a4.65 4.65 0 10-9.3 0v13.681zm4.65.14c.775 0 1.55.673 1.55 1.539 0 .77-.775 1.539-1.55 1.539-.872 0-1.55-.77-1.55-1.54 0-.865.678-1.539 1.55-1.539zm42.14 1.731l-11.4-9.193a4.59 4.59 0 00-5.94.15c-2.906 2.694-7.266 2.405-9.881-.385-2.519-2.79-2.325-7.215.484-9.812l1.92-1.744C24.101 3.54 22.733 0 19.86 0c-.872 0-1.647.385-2.228.962l-.737.732A15.215 15.215 0 0012.4 12.49v13.957c0 .695.564 1.259 1.259 1.259.312 0 .613.116.844.325l8.36 7.563a6.19 6.19 0 008.684-.824.114.114 0 01.164-.013l1.614 1.414c1.55 1.25 3.875 1.058 5.134-.48l2.532-3.164a.742.742 0 011.053-.108c1.26 1.059 3.197.866 4.36-.48l.871-1.155c1.066-1.347.872-3.27-.484-4.329z" fill="#0E96A7"/></svg><svg fill="none" viewBox="0 0 56 38" id="industrial-11" xmlns="http://www.w3.org/2000/svg"><path d="M32.667 0H4.569C2.042 0 0 2.177 0 4.75v28.599C0 35.922 2.042 38 4.57 38h28.097c2.527 0 4.666-2.078 4.666-4.651V4.75c0-2.573-2.139-4.75-4.666-4.75zm18.375 3.76l-10.598 7.521v15.537l10.598 7.52C53.083 35.725 56 34.24 56 31.767V6.333c0-2.474-2.917-3.958-4.958-2.573z" fill="#0E96A7"/></svg><svg fill="none" viewBox="0 0 56 50" id="industrial-12" xmlns="http://www.w3.org/2000/svg"><path d="M20.222 0c-2.916 0-5.347 2.05-6.028 4.785-.097 0-.194-.098-.194-.098-3.5 0-6.222 2.833-6.222 6.25 0 .489 0 .977.097 1.368-2.82 1.172-4.764 4.004-4.764 7.226 0 1.27.292 2.442.778 3.418C1.556 24.316 0 26.855 0 29.687c0 3.32 1.944 6.055 4.764 7.227-.097.488-.097.977-.097 1.367 0 3.907 3.11 7.032 7 7.032.389 0 .777 0 1.166-.098.875 2.832 3.5 4.785 6.611 4.785 3.792 0 7-3.125 7-7.031V6.25c0-3.418-2.819-6.25-6.222-6.25zM56 29.688c0-2.832-1.653-5.372-3.986-6.739.486-.976.875-2.148.875-3.418 0-3.222-2.042-6.054-4.861-7.226.097-.39.194-.88.194-1.367 0-3.418-2.82-6.25-6.222-6.25-.097 0-.194.097-.292.097C41.028 2.051 38.598 0 35.778 0c-3.5 0-6.222 2.832-6.222 6.25v36.719c0 3.906 3.11 7.031 7 7.031 3.013 0 5.638-1.953 6.61-4.785.292.097.681.097 1.167.097 3.792 0 7-3.124 7-7.03 0-.391-.097-.88-.194-1.368C53.959 35.742 56 33.008 56 29.687z" fill="#0E96A7"/></svg><svg fill="none" viewBox="0 0 60 41" id="industrial-2" xmlns="http://www.w3.org/2000/svg"><path d="M53.446 18.908C51.904 18.136 51 16.367 51 14.643c0-4.85-4.031-8.786-9-8.786-2.882 0-6.303-.695-8.543-2.509A15.013 15.013 0 0024 0C15.656 0 9 6.59 9 14.643c0 .492-.317.923-.773 1.107C3.386 17.7 0 22.43 0 27.821 0 35.143 6 41 13.5 41H48c6.563 0 12-5.217 12-11.714 0-4.476-2.652-8.423-6.554-10.378z" fill="#0E96A7"/></svg><svg fill="none" viewBox="0 0 43 50" id="industrial-3" xmlns="http://www.w3.org/2000/svg"><path d="M33.786 31.25c-.201 0-.4.006-.599.02-3.356.215-7.083.815-9.926-.982l-3.372-2.132c-1.028-.65-1.556-1.94-1.556-3.156 0-1.159.494-2.387 1.474-3.006l3.454-2.184c2.843-1.798 6.6-1.256 9.958-1.075.188.01.377.015.567.015 5.087 0 9.214-4.102 9.214-9.375C43 4.199 38.873 0 33.786 0c-5.183 0-9.215 4.2-9.215 9.375 0 1.216-.528 2.506-1.556 3.156l-3.372 2.132c-2.843 1.797-6.567 1.174-9.924.977a8.64 8.64 0 00-.505-.015C4.031 15.625 0 19.825 0 25c0 5.273 4.031 9.375 9.214 9.375.158 0 .316-.004.473-.011 3.359-.164 7.113-.727 9.956 1.07l3.372 2.133c1.028.65 1.556 1.94 1.556 3.156v-.098c0 5.273 4.032 9.375 9.215 9.375C38.873 50 43 45.898 43 40.625c0-5.176-4.127-9.375-9.214-9.375z" fill="#0E96A7"/></svg><svg fill="none" viewBox="0 0 28 51" id="industrial-4" xmlns="http://www.w3.org/2000/svg"><path d="M20.366 23.309l-10.5-3.188c-1.263-.299-2.04-1.494-2.04-2.789 0-1.594 1.263-2.988 2.819-2.988h6.416c1.264 0 2.43.398 3.403 1.096a1.445 1.445 0 001.847-.2l3.402-3.386c.681-.698.584-1.793-.194-2.49a13.027 13.027 0 00-3.687-2.081c-2.5-.927-4.674-3.023-4.674-5.69C17.158.798 16.381 0 15.603 0h-3.111c-.875 0-1.556.797-1.556 1.594v4.49c0 .16-.13.291-.291.291-6.222 0-11.18 5.479-10.597 11.953.389 4.582 3.791 8.367 8.166 9.662l9.916 2.989c1.264.298 2.14 1.494 2.14 2.789 0 1.593-1.362 2.888-2.917 2.888h-6.417c-1.166 0-2.333-.299-3.305-.996-.68-.398-1.459-.299-1.945.2l-3.402 3.386c-.68.697-.584 1.793.194 2.39a13.074 13.074 0 003.773 2.17c2.477.914 4.685 2.96 4.685 5.6 0 .897.68 1.594 1.556 1.594h3.11c.779 0 1.556-.697 1.556-1.594 0-2.657 2.214-4.736 4.626-5.851 2.558-1.182 4.648-3.295 5.582-6.102 2.14-6.176-1.36-12.451-7-14.144z" fill="#0E96A7"/></svg><svg fill="none" viewBox="0 0 56 43" id="industrial-5" xmlns="http://www.w3.org/2000/svg"><path d="M27.272 11.159l-8.696 7.12a25 25 0 00-9.162 19.343v3.839c0 .866.68 1.539 1.553 1.539h10.87c.776 0 1.456-.673 1.456-1.54v-9.234c0-.77.776-1.54 1.553-1.54h6.211c.874 0 1.553.77 1.553 1.54v9.235c0 .866.776 1.539 1.553 1.539H45.13c.776 0 1.553-.673 1.553-1.54v-3.844a25 25 0 00-9.276-19.436l-8.68-7.021a1.053 1.053 0 00-.678-.289c-.292 0-.583.096-.777.289zm28.243 9.908a22.125 22.125 0 01-8.056-17.075V1.154C47.46.481 46.877 0 46.295 0H40.86c-.68 0-1.165.481-1.165 1.154 0 2.773-3.22 4.303-5.37 2.551L30.96.962A5.02 5.02 0 0028.048 0c-1.164 0-2.232.385-3.008.962L.485 21.067c-.29.192-.485.577-.485.866 0 .552.471.983.828 1.404l1.987 2.348c.194.288.485.384.873.384.291 0 .582-.096.776-.288L27.272 7.215c.194-.193.485-.289.777-.289.194 0 .485.096.679.289L51.535 25.78c.195.192.486.288.777.288.388 0 .68-.096.873-.384l2.524-2.982c.194-.193.291-.482.291-.77 0-.289-.194-.674-.485-.866z" fill="#0E96A7"/></svg><svg fill="none" viewBox="0 0 57 50" id="industrial-6" xmlns="http://www.w3.org/2000/svg"><path d="M52.296 29.492L56.951 9.18c.297-1.465-.792-2.93-2.377-2.93H15.748l-.891-4.297C14.56.88 13.569 0 12.48 0H2.377C.99 0 0 1.074 0 2.344v1.562C0 5.273.99 6.25 2.377 6.25h6.834l7.032 33.594c-1.683.976-2.773 2.734-2.773 4.687 0 3.028 2.476 5.469 5.547 5.469 2.971 0 5.546-2.441 5.546-5.469 0-1.465-.693-2.832-1.683-3.906h20.7c-.99 1.074-1.585 2.441-1.585 3.906 0 3.028 2.476 5.469 5.547 5.469 2.971 0 5.546-2.441 5.546-5.469 0-2.148-1.287-4.004-3.17-4.883l.496-2.343c.396-1.465-.792-2.93-2.278-2.93H21.592l-.693-3.125h29.02c1.09 0 2.08-.684 2.377-1.758z" fill="#0E96A7"/></svg><svg fill="none" viewBox="0 0 46 50" id="industrial-7" xmlns="http://www.w3.org/2000/svg"><path d="M43.125 8.11L24.725.292A5.332 5.332 0 0023 0c-.67 0-1.246.098-1.82.293L2.78 8.11A4.68 4.68 0 000 12.41c0 19.443 10.925 32.828 21.18 37.225a4.473 4.473 0 003.545 0C32.967 46.116 46 34.099 46 12.408c0-1.856-1.15-3.517-2.875-4.299zm-7.086 21.592C32.193 37.663 23 33.048 23 24.206v-5.258c0-5.972 6.097-10.004 11.592-7.667 3.13 1.33 5.218 4.446 4.702 7.807-.6 3.905-1.732 7.46-3.255 10.614z" fill="#0E96A7"/></svg><svg fill="none" viewBox="0 0 62 50" id="industrial-8" xmlns="http://www.w3.org/2000/svg"><path d="M15.529 18.706c-7.951 0-14.35 5.77-15.514 13.202-.097.49.29.88.776.88h29.378c.918 0 .815-1.34.584-2.227-1.761-6.77-7.852-11.855-15.224-11.855zm14.64 17.212H.791c-.485 0-.873.489-.776.978C1.178 44.328 7.578 50 15.529 50c7.853 0 14.253-5.672 15.416-13.104.097-.49-.29-.978-.776-.978zM57.513 4.526C51.986-.95 43.55-1.439 37.442 2.962c-.388.293-.388.88-.097 1.173L57.9 24.867c.291.294.873.294 1.164-.098 4.363-6.16 3.878-14.668-1.552-20.243zM36.2 7.38c-.657-.663-1.69-1.647-2.248-.898-4.363 6.161-3.878 14.67 1.551 20.243 5.527 5.477 13.963 5.966 20.071 1.565.749-.567-.235-1.606-.896-2.273L36.199 7.38z" fill="#0E96A7"/></svg><svg fill="none" viewBox="0 0 64 45" id="industrial-9" xmlns="http://www.w3.org/2000/svg"><path d="M42.544 22.434c-1.7 0-3.3-.905-4.1-2.312l-6.4-10.755-6.502 10.755c-.8 1.508-2.4 2.413-4.1 2.413-.5 0-.9-.1-1.3-.201L6.44 18.313v17.892c0 1.508 1 2.814 2.4 3.116l21.603 5.528c1 .201 2.1.201 3.1 0l21.603-5.528c1.5-.302 2.5-1.608 2.5-3.116V18.313l-13.702 4.02c-.5.101-.9.101-1.4.101zm21.303-11.258L58.647.823c-.3-.603-.901-.904-1.601-.804L32.043 3.135l9.101 15.379c.4.603 1.2.905 1.9.704l19.803-5.73c1-.301 1.4-1.407 1-2.312zM5.34.823L.14 11.176c-.4.905.1 2.01 1 2.312l19.802 5.73c.7.2 1.5-.1 1.9-.805l9.201-15.278L6.94.019c-.7-.1-1.3.201-1.6.804z" fill="#0E96A7"/></svg><svg fill="none" viewBox="0 0 208 45" id="logo" xmlns="http://www.w3.org/2000/svg"><path d="M45.76 17.296c-.904-.368-1.628-.552-2.351-.552-.724 0-1.628-.368-1.99-1.104l-2.713-4.784a2.772 2.772 0 010-2.392c.543-.92.904-2.208.724-3.496C39.249 2.392 37.078.184 34.546 0c-2.351-.184-4.34.92-5.426 2.76-.362.736-1.085 1.104-1.99 1.104h-5.245c-.723 0-1.628-.552-1.99-1.104C18.812.92 16.822-.184 14.47 0c-2.352.368-4.522 2.576-4.703 5.152-.18 1.288.18 2.392.723 3.496.362.552.543 1.472 0 2.208L7.958 15.64c-.542.736-1.266 1.104-2.17 1.104-.543 0-.905 0-1.447.184C2.17 17.48.36 19.32 0 21.528c-.543 3.496 1.99 6.624 5.426 6.624h.181c.723 0 1.628.368 1.99 1.104l2.713 4.784a2.772 2.772 0 010 2.392c-.543.92-.905 2.208-.724 3.312.181 2.576 2.351 4.784 4.884 4.968 2.17.184 4.34-.92 5.426-2.76.361-.736 1.085-1.104 1.99-1.104h5.425c.724 0 1.628.552 1.99 1.104.904 1.656 2.894 2.76 4.883 2.76 2.894 0 5.427-2.576 5.427-5.52.18-3.128-2.352-5.704-5.607-5.704-2.17 0-4.16 1.288-5.065 3.128-.362.736-1.085 1.288-1.99 1.288h-4.883c-.904 0-1.628-.552-1.99-1.288-.904-1.84-2.893-3.128-5.064-3.128h-.362c-.723 0-1.627-.368-1.99-1.104l-2.712-4.6a2.772 2.772 0 010-2.392v-.184c.362-.736 1.085-1.104 1.99-1.104h5.606c.905 0 1.628.552 1.99 1.288.904 1.656 2.713 2.76 4.703 2.76 1.99 0 3.798-1.104 4.883-2.944.362-.736 1.085-1.288 1.99-1.288h6.873c.542 2.392 2.713 4.048 5.426 4.048 3.255 0 5.788-2.944 5.607-6.256-.181-1.84-1.447-3.68-3.256-4.416zm-21.162-.552c-2.17 0-3.979 1.288-4.883 3.128-.362.736-1.085 1.104-1.99 1.104H12.48c-.904 0-1.628-.552-1.99-1.288 0-.184-.18-.184-.18-.368-.362-.736-.543-1.472 0-2.208l2.713-4.968c.361-.736 1.266-1.104 1.99-1.104h.18c2.17 0 3.98-1.288 4.884-3.128.361-.736 1.085-1.288 1.99-1.288h5.064c.723 0 1.627.552 1.99 1.288.903 1.84 2.712 3.128 4.883 3.128h.18c.905 0 1.628.368 1.99 1.104l2.532 4.6c.362.736.543 1.656 0 2.392-.362.552-.543.92-.543 1.656h-6.872c-.905 0-1.628-.552-1.99-1.288-.904-1.472-2.713-2.76-4.703-2.76z" fill="url(#opaint0_linear_2_79)"/><path d="M74.156 15.64c.543 0 .905-.184 1.267-.552.361-.368.542-.736.542-1.104 0-.552-.18-.92-.542-1.288-.362-.368-.724-.552-1.267-.552h-9.405c-.542 0-.904.184-1.266.552-.361.368-.542.736-.542 1.288v16.56c0 .552.18.92.542 1.288.362.368.724.552 1.266.552h9.405c.543 0 .905-.184 1.267-.552.361-.368.542-.736.542-1.104 0-.552-.18-.736-.542-1.104-.362-.368-.724-.552-1.267-.552H66.56v-5.336h6.33c.543 0 .905-.184 1.266-.552.362-.368.543-.736.543-1.104 0-.552-.18-.92-.543-1.288-.361-.368-.723-.552-1.266-.552h-6.33v-4.784l7.596.184zm22.067 1.104c-1.086 0-2.17.368-3.075.92-.904.552-1.628 1.472-1.99 2.208-.542-2.024-2.17-3.128-4.521-3.128-.905 0-1.81.184-2.533.736-.723.552-1.447 1.104-1.99 1.84v-.552c0-.552-.18-.92-.542-1.288-.362-.368-.723-.552-1.266-.552s-.904.184-1.266.552c-.362.368-.543.736-.543 1.288v11.96c0 .552.181.92.543 1.288.362.368.723.552 1.266.552s.904-.184 1.266-.552c.362-.368.543-.736.543-1.288v-7.36c0-.92.362-1.84.904-2.392.543-.552 1.447-.92 2.532-.92s1.809.368 2.17.92c.362.552.543 1.472.543 2.576v7.36c0 .552.181.92.543 1.288.362.368.724.552 1.266.552.543 0 .904-.184 1.266-.552.362-.368.543-.736.543-1.288v-7.36c0-.92.361-1.84.904-2.392.543-.552 1.447-.92 2.532-.92s1.809.368 2.17.92c.362.552.543 1.472.543 2.576v7.36c0 .552.181.92.543 1.288.362.368.723.552 1.266.552s.904-.184 1.266-.552c.362-.368.543-.736.543-1.288v-7.36c0-2.024-.362-3.68-1.085-4.784-1.086-1.472-2.533-2.208-4.341-2.208zm20.257 1.104c-1.085-.736-2.17-.92-3.436-.92-.905 0-1.809.184-2.533.552-.723.368-1.447.92-1.808 1.472v-.184c0-.552-.181-.92-.543-1.288-.362-.368-.723-.552-1.266-.552s-.904.184-1.266.552c-.362.368-.543.736-.543 1.288v17.664c0 .552.181.92.543 1.288.362.368.723.552 1.266.552s.904-.184 1.266-.552c.362-.368.543-.736.543-1.288v-5.704c.542.552 1.266.92 1.989 1.288.724.368 1.628.552 2.532.552 1.266 0 2.352-.368 3.437-.92 1.085-.736 1.809-1.656 2.532-2.944.543-1.288.904-2.576.904-4.232 0-1.472-.361-2.944-.904-4.048-.723-.92-1.628-1.84-2.713-2.576zm-.904 10.488c-.724.92-1.809 1.472-3.075 1.472-1.266 0-2.171-.552-3.075-1.472-.904-.92-1.085-2.024-1.085-3.496s.362-2.576 1.085-3.496c.724-.92 1.809-1.288 3.075-1.288 1.266 0 2.17.552 3.075 1.288.723.92 1.085 2.024 1.085 3.496 0 1.288-.362 2.392-1.085 3.496zm15.554-11.592c-.904 0-1.808.184-2.532.736-.723.552-1.447 1.104-1.989 1.84v-6.44c0-.552-.181-.92-.543-1.288-.362-.368-.723-.552-1.266-.552s-.904.184-1.266.552c-.362.368-.543.736-.543 1.288v17.848c0 .552.181.92.543 1.288.362.368.723.552 1.266.552s.904-.184 1.266-.552c.362-.368.543-.736.543-1.288v-7.36c0-.92.361-1.84.904-2.392.543-.552 1.447-.92 2.532-.92s1.809.368 2.171.92c.361.552.542 1.472.542 2.576v7.36c0 .552.181.92.543 1.288.362.368.723.552 1.266.552s.904-.184 1.266-.552c.362-.368.543-.736.543-1.288v-7.36c0-2.024-.362-3.68-1.086-4.784-1.085-1.288-2.351-2.024-4.16-2.024zm21.162 0c-.542 0-.904.184-1.266.552-.362.368-.542.736-.542 1.288-.543-.552-1.267-.92-1.99-1.288-.724-.368-1.628-.552-2.532-.552-1.266 0-2.352.368-3.437.92-1.085.736-1.808 1.656-2.532 2.944-.543 1.288-.904 2.576-.904 4.232 0 1.472.361 2.944.904 4.048.543 1.288 1.447 2.208 2.532 2.76 1.085.736 2.171.92 3.437.92.904 0 1.808-.184 2.532-.552.723-.368 1.447-.92 1.809-1.472 0 .552.181.92.542 1.288.362.368.724.552 1.266.552.543 0 .905-.184 1.266-.552.362-.368.543-.736.543-1.288V18.4c0-.552-.181-.92-.543-1.288-.18-.184-.542-.368-1.085-.368zm-2.713 11.592c-.723.92-1.809 1.288-3.075 1.288-1.266 0-2.17-.552-3.074-1.288-.724-.92-1.086-2.024-1.086-3.496s.362-2.576 1.086-3.496c.723-.92 1.808-1.472 3.074-1.472 1.266 0 2.171.552 3.075 1.472.724.92 1.085 2.024 1.085 3.496 0 1.288-.361 2.392-1.085 3.496zm17.906-5.704c-.904-.368-1.989-.736-3.255-1.288-1.628-.552-2.713-1.104-3.618-1.656a3.239 3.239 0 01-1.266-2.576c0-1.104.543-1.84 1.266-2.576a6.17 6.17 0 013.256-.92 7.15 7.15 0 012.713.552c1.085.552 1.628 1.104 2.17 1.656.181.184.362.184.543.184.181 0 .543-.184.543-.368s.361-.368.361-.552c0-.184-.181-.552-.361-.736-.543-.736-1.447-1.288-2.352-1.656-1.085-.368-1.989-.552-3.255-.552-1.266 0-2.352.184-3.256.736-.904.552-1.809 1.104-2.17 1.84-.543.736-.724 1.656-.724 2.76 0 1.104.181 2.024.724 2.76.542.736 1.085 1.288 1.989 1.84.724.552 1.809.736 3.075 1.288 1.085.368 1.989.736 2.713 1.104.723.368 1.266.736 1.809 1.288.542.552.723 1.288.723 2.024 0 1.104-.543 1.84-1.266 2.576-.904.552-1.99.92-3.437.92-2.17 0-3.979-.736-5.606-2.392-.181-.184-.362-.368-.543-.368-.181 0-.362.184-.543.368-.181.184-.361.368-.361.552 0 .368.18.552.361.736.905.92 1.99 1.656 3.075 2.208 1.085.552 2.171.736 3.617.736 1.267 0 2.352-.184 3.437-.736.904-.552 1.809-1.104 2.351-1.84.543-.736.724-1.656.724-2.576 0-1.288-.362-2.208-.724-3.128-1.085-1.104-1.808-1.656-2.713-2.208zm16.64-4.232c-1.085-.552-2.351-.92-3.617-.92s-2.532.368-3.618.92c-1.085.552-1.989 1.656-2.532 2.76a8.681 8.681 0 00-.904 3.864c0 1.472.362 2.76.904 3.864.543 1.104 1.447 2.024 2.532 2.76 1.086.552 2.352.92 3.618.92s2.532-.368 3.617-.92 1.99-1.656 2.532-2.76a8.668 8.668 0 00.905-3.864c0-1.472-.362-2.76-.905-3.864-.723-1.104-1.447-2.024-2.532-2.76zm1.085 9.936c-.542.92-1.085 1.656-1.989 2.208-.904.552-1.809.736-2.713.736-1.085 0-1.99-.368-2.713-.736-.724-.368-1.447-1.288-1.99-2.208-.542-.92-.723-1.84-.723-3.128 0-1.104.181-2.208.723-3.128.543-.92 1.085-1.656 1.99-2.208.723-.552 1.809-.736 2.713-.736.904 0 1.989.368 2.713.736.904.552 1.447 1.288 1.989 2.208.543.92.724 1.84.724 3.128 0 1.104-.181 2.024-.724 3.128zm11.938-16.744c-.543-.184-.904-.184-1.447-.184-1.085 0-1.99.368-2.713.92-.724.552-1.085 1.656-1.085 2.76v2.944h-1.99c-.181 0-.362 0-.543.184-.18.184-.18.368-.18.552 0 .184 0 .368.18.552.181.184.362.184.543.184h1.99v11.96c0 .184 0 .552.181.552.18.184.361.184.542.184.181 0 .543 0 .543-.184.181-.184.181-.368.181-.552v-11.96h3.074c.181 0 .362 0 .543-.184.181-.184.181-.368.181-.552 0-.184 0-.368-.181-.552-.181-.184-.362-.184-.543-.184h-3.074v-2.944c0-.736.18-1.288.542-1.656.362-.368.724-.552 1.447-.552.181 0 .543 0 .905.184.18.184.542.184.542.184s.362 0 .543-.184c.181-.184.181-.368.181-.552.361-.552.18-.736-.362-.92zm9.948 7.912c.181 0 .361 0 .542-.184.181-.184.181-.368.181-.552 0-.184 0-.368-.181-.552-.181-.184-.361-.184-.542-.184h-2.713V14.72c0-.184 0-.552-.181-.552-.181-.184-.362-.184-.543-.184-.181 0-.542 0-.542.184-.543 0-.543.184-.543.552v3.128h-1.99c-.18 0-.361 0-.542.184-.181.184-.181.368-.181.552 0 .184 0 .368.181.552.181.184.362.184.542.184h1.99v9.752c0 1.104.181 1.84.543 2.208.361.552.723.736 1.085.92.362.184.904.184 1.447.184.361 0 .723-.184 1.085-.368s.543-.368.543-.736c0-.184 0-.368-.181-.552-.181-.184-.362-.184-.543-.184h-.723c-.543 0-.724-.184-1.086-.368-.361-.184-.361-.736-.361-1.472v-9.568h2.713v.368z" fill="#4B4B4B"/><defs><linearGradient id="opaint0_linear_2_79" x1="7.729" y1="39.631" x2="42.055" y2="5.889" gradientUnits="userSpaceOnUse"><stop stop-color="#0090C6"/><stop offset="1" stop-color="#1EDDD6"/></linearGradient></defs></svg><svg fill="none" viewBox="0 0 31 20" id="quotes" xmlns="http://www.w3.org/2000/svg"><path d="M11.425 19.549H.325l8.1-18.9H15.7l-4.275 18.9zm15.15 0h-11.1l8.1-18.9h7.275l-4.275 18.9z" fill="#4B4B4B"/></svg></svg>