<svg width="208" height="45" fill="none" xmlns="http://www.w3.org/2000/svg"><path d="M45.76 17.296c-.904-.368-1.628-.552-2.351-.552-.724 0-1.628-.368-1.99-1.104l-2.713-4.784a2.772 2.772 0 010-2.392c.543-.92.904-2.208.724-3.496C39.249 2.392 37.078.184 34.546 0c-2.351-.184-4.34.92-5.426 2.76-.362.736-1.085 1.104-1.99 1.104h-5.245c-.723 0-1.628-.552-1.99-1.104C18.812.92 16.822-.184 14.47 0c-2.352.368-4.522 2.576-4.703 5.152-.18 1.288.18 2.392.723 3.496.362.552.543 1.472 0 2.208L7.958 15.64c-.542.736-1.266 1.104-2.17 1.104-.543 0-.905 0-1.447.184C2.17 17.48.36 19.32 0 21.528c-.543 3.496 1.99 6.624 5.426 6.624h.181c.723 0 1.628.368 1.99 1.104l2.713 4.784a2.772 2.772 0 010 2.392c-.543.92-.905 2.208-.724 3.312.181 2.576 2.351 4.784 4.884 4.968 2.17.184 4.34-.92 5.426-2.76.361-.736 1.085-1.104 1.99-1.104h5.425c.724 0 1.628.552 1.99 1.104.904 1.656 2.894 2.76 4.883 2.76 2.894 0 5.427-2.576 5.427-5.52.18-3.128-2.352-5.704-5.607-5.704-2.17 0-4.16 1.288-5.065 3.128-.362.736-1.085 1.288-1.99 1.288h-4.883c-.904 0-1.628-.552-1.99-1.288-.904-1.84-2.893-3.128-5.064-3.128h-.362c-.723 0-1.627-.368-1.99-1.104l-2.712-4.6a2.772 2.772 0 010-2.392v-.184c.362-.736 1.085-1.104 1.99-1.104h5.606c.905 0 1.628.552 1.99 1.288.904 1.656 2.713 2.76 4.703 2.76 1.99 0 3.798-1.104 4.883-2.944.362-.736 1.085-1.288 1.99-1.288h6.873c.542 2.392 2.713 4.048 5.426 4.048 3.255 0 5.788-2.944 5.607-6.256-.181-1.84-1.447-3.68-3.256-4.416zm-21.162-.552c-2.17 0-3.979 1.288-4.883 3.128-.362.736-1.085 1.104-1.99 1.104H12.48c-.904 0-1.628-.552-1.99-1.288 0-.184-.18-.184-.18-.368-.362-.736-.543-1.472 0-2.208l2.713-4.968c.361-.736 1.266-1.104 1.99-1.104h.18c2.17 0 3.98-1.288 4.884-3.128.361-.736 1.085-1.288 1.99-1.288h5.064c.723 0 1.627.552 1.99 1.288.903 1.84 2.712 3.128 4.883 3.128h.18c.905 0 1.628.368 1.99 1.104l2.532 4.6c.362.736.543 1.656 0 2.392-.362.552-.543.92-.543 1.656h-6.872c-.905 0-1.628-.552-1.99-1.288-.904-1.472-2.713-2.76-4.703-2.76z" fill="url(#paint0_linear_2_79)"/><path d="M74.156 15.64c.543 0 .905-.184 1.267-.552.361-.368.542-.736.542-1.104 0-.552-.18-.92-.542-1.288-.362-.368-.724-.552-1.267-.552h-9.405c-.542 0-.904.184-1.266.552-.361.368-.542.736-.542 1.288v16.56c0 .552.18.92.542 1.288.362.368.724.552 1.266.552h9.405c.543 0 .905-.184 1.267-.552.361-.368.542-.736.542-1.104 0-.552-.18-.736-.542-1.104-.362-.368-.724-.552-1.267-.552H66.56v-5.336h6.33c.543 0 .905-.184 1.266-.552.362-.368.543-.736.543-1.104 0-.552-.18-.92-.543-1.288-.361-.368-.723-.552-1.266-.552h-6.33v-4.784l7.596.184zm22.067 1.104c-1.086 0-2.17.368-3.075.92-.904.552-1.628 1.472-1.99 2.208-.542-2.024-2.17-3.128-4.521-3.128-.905 0-1.81.184-2.533.736-.723.552-1.447 1.104-1.99 1.84v-.552c0-.552-.18-.92-.542-1.288-.362-.368-.723-.552-1.266-.552s-.904.184-1.266.552c-.362.368-.543.736-.543 1.288v11.96c0 .552.181.92.543 1.288.362.368.723.552 1.266.552s.904-.184 1.266-.552c.362-.368.543-.736.543-1.288v-7.36c0-.92.362-1.84.904-2.392.543-.552 1.447-.92 2.532-.92s1.809.368 2.17.92c.362.552.543 1.472.543 2.576v7.36c0 .552.181.92.543 1.288.362.368.724.552 1.266.552.543 0 .904-.184 1.266-.552.362-.368.543-.736.543-1.288v-7.36c0-.92.361-1.84.904-2.392.543-.552 1.447-.92 2.532-.92s1.809.368 2.17.92c.362.552.543 1.472.543 2.576v7.36c0 .552.181.92.543 1.288.362.368.723.552 1.266.552s.904-.184 1.266-.552c.362-.368.543-.736.543-1.288v-7.36c0-2.024-.362-3.68-1.085-4.784-1.086-1.472-2.533-2.208-4.341-2.208zm20.257 1.104c-1.085-.736-2.17-.92-3.436-.92-.905 0-1.809.184-2.533.552-.723.368-1.447.92-1.808 1.472v-.184c0-.552-.181-.92-.543-1.288-.362-.368-.723-.552-1.266-.552s-.904.184-1.266.552c-.362.368-.543.736-.543 1.288v17.664c0 .552.181.92.543 1.288.362.368.723.552 1.266.552s.904-.184 1.266-.552c.362-.368.543-.736.543-1.288v-5.704c.542.552 1.266.92 1.989 1.288.724.368 1.628.552 2.532.552 1.266 0 2.352-.368 3.437-.92 1.085-.736 1.809-1.656 2.532-2.944.543-1.288.904-2.576.904-4.232 0-1.472-.361-2.944-.904-4.048-.723-.92-1.628-1.84-2.713-2.576zm-.904 10.488c-.724.92-1.809 1.472-3.075 1.472-1.266 0-2.171-.552-3.075-1.472-.904-.92-1.085-2.024-1.085-3.496s.362-2.576 1.085-3.496c.724-.92 1.809-1.288 3.075-1.288 1.266 0 2.17.552 3.075 1.288.723.92 1.085 2.024 1.085 3.496 0 1.288-.362 2.392-1.085 3.496zm15.554-11.592c-.904 0-1.808.184-2.532.736-.723.552-1.447 1.104-1.989 1.84v-6.44c0-.552-.181-.92-.543-1.288-.362-.368-.723-.552-1.266-.552s-.904.184-1.266.552c-.362.368-.543.736-.543 1.288v17.848c0 .552.181.92.543 1.288.362.368.723.552 1.266.552s.904-.184 1.266-.552c.362-.368.543-.736.543-1.288v-7.36c0-.92.361-1.84.904-2.392.543-.552 1.447-.92 2.532-.92s1.809.368 2.171.92c.361.552.542 1.472.542 2.576v7.36c0 .552.181.92.543 1.288.362.368.723.552 1.266.552s.904-.184 1.266-.552c.362-.368.543-.736.543-1.288v-7.36c0-2.024-.362-3.68-1.086-4.784-1.085-1.288-2.351-2.024-4.16-2.024zm21.162 0c-.542 0-.904.184-1.266.552-.362.368-.542.736-.542 1.288-.543-.552-1.267-.92-1.99-1.288-.724-.368-1.628-.552-2.532-.552-1.266 0-2.352.368-3.437.92-1.085.736-1.808 1.656-2.532 2.944-.543 1.288-.904 2.576-.904 4.232 0 1.472.361 2.944.904 4.048.543 1.288 1.447 2.208 2.532 2.76 1.085.736 2.171.92 3.437.92.904 0 1.808-.184 2.532-.552.723-.368 1.447-.92 1.809-1.472 0 .552.181.92.542 1.288.362.368.724.552 1.266.552.543 0 .905-.184 1.266-.552.362-.368.543-.736.543-1.288V18.4c0-.552-.181-.92-.543-1.288-.18-.184-.542-.368-1.085-.368zm-2.713 11.592c-.723.92-1.809 1.288-3.075 1.288-1.266 0-2.17-.552-3.074-1.288-.724-.92-1.086-2.024-1.086-3.496s.362-2.576 1.086-3.496c.723-.92 1.808-1.472 3.074-1.472 1.266 0 2.171.552 3.075 1.472.724.92 1.085 2.024 1.085 3.496 0 1.288-.361 2.392-1.085 3.496zm17.906-5.704c-.904-.368-1.989-.736-3.255-1.288-1.628-.552-2.713-1.104-3.618-1.656a3.239 3.239 0 01-1.266-2.576c0-1.104.543-1.84 1.266-2.576a6.17 6.17 0 013.256-.92 7.15 7.15 0 012.713.552c1.085.552 1.628 1.104 2.17 1.656.181.184.362.184.543.184.181 0 .543-.184.543-.368s.361-.368.361-.552c0-.184-.181-.552-.361-.736-.543-.736-1.447-1.288-2.352-1.656-1.085-.368-1.989-.552-3.255-.552-1.266 0-2.352.184-3.256.736-.904.552-1.809 1.104-2.17 1.84-.543.736-.724 1.656-.724 2.76 0 1.104.181 2.024.724 2.76.542.736 1.085 1.288 1.989 1.84.724.552 1.809.736 3.075 1.288 1.085.368 1.989.736 2.713 1.104.723.368 1.266.736 1.809 1.288.542.552.723 1.288.723 2.024 0 1.104-.543 1.84-1.266 2.576-.904.552-1.99.92-3.437.92-2.17 0-3.979-.736-5.606-2.392-.181-.184-.362-.368-.543-.368-.181 0-.362.184-.543.368-.181.184-.361.368-.361.552 0 .368.18.552.361.736.905.92 1.99 1.656 3.075 2.208 1.085.552 2.171.736 3.617.736 1.267 0 2.352-.184 3.437-.736.904-.552 1.809-1.104 2.351-1.84.543-.736.724-1.656.724-2.576 0-1.288-.362-2.208-.724-3.128-1.085-1.104-1.808-1.656-2.713-2.208zm16.64-4.232c-1.085-.552-2.351-.92-3.617-.92s-2.532.368-3.618.92c-1.085.552-1.989 1.656-2.532 2.76a8.681 8.681 0 00-.904 3.864c0 1.472.362 2.76.904 3.864.543 1.104 1.447 2.024 2.532 2.76 1.086.552 2.352.92 3.618.92s2.532-.368 3.617-.92 1.99-1.656 2.532-2.76a8.668 8.668 0 00.905-3.864c0-1.472-.362-2.76-.905-3.864-.723-1.104-1.447-2.024-2.532-2.76zm1.085 9.936c-.542.92-1.085 1.656-1.989 2.208-.904.552-1.809.736-2.713.736-1.085 0-1.99-.368-2.713-.736-.724-.368-1.447-1.288-1.99-2.208-.542-.92-.723-1.84-.723-3.128 0-1.104.181-2.208.723-3.128.543-.92 1.085-1.656 1.99-2.208.723-.552 1.809-.736 2.713-.736.904 0 1.989.368 2.713.736.904.552 1.447 1.288 1.989 2.208.543.92.724 1.84.724 3.128 0 1.104-.181 2.024-.724 3.128zm11.938-16.744c-.543-.184-.904-.184-1.447-.184-1.085 0-1.99.368-2.713.92-.724.552-1.085 1.656-1.085 2.76v2.944h-1.99c-.181 0-.362 0-.543.184-.18.184-.18.368-.18.552 0 .184 0 .368.18.552.181.184.362.184.543.184h1.99v11.96c0 .184 0 .552.181.552.18.184.361.184.542.184.181 0 .543 0 .543-.184.181-.184.181-.368.181-.552v-11.96h3.074c.181 0 .362 0 .543-.184.181-.184.181-.368.181-.552 0-.184 0-.368-.181-.552-.181-.184-.362-.184-.543-.184h-3.074v-2.944c0-.736.18-1.288.542-1.656.362-.368.724-.552 1.447-.552.181 0 .543 0 .905.184.18.184.542.184.542.184s.362 0 .543-.184c.181-.184.181-.368.181-.552.361-.552.18-.736-.362-.92zm9.948 7.912c.181 0 .361 0 .542-.184.181-.184.181-.368.181-.552 0-.184 0-.368-.181-.552-.181-.184-.361-.184-.542-.184h-2.713V14.72c0-.184 0-.552-.181-.552-.181-.184-.362-.184-.543-.184-.181 0-.542 0-.542.184-.543 0-.543.184-.543.552v3.128h-1.99c-.18 0-.361 0-.542.184-.181.184-.181.368-.181.552 0 .184 0 .368.181.552.181.184.362.184.542.184h1.99v9.752c0 1.104.181 1.84.543 2.208.361.552.723.736 1.085.92.362.184.904.184 1.447.184.361 0 .723-.184 1.085-.368s.543-.368.543-.736c0-.184 0-.368-.181-.552-.181-.184-.362-.184-.543-.184h-.723c-.543 0-.724-.184-1.086-.368-.361-.184-.361-.736-.361-1.472v-9.568h2.713v.368z" fill="#4B4B4B"/><defs><linearGradient id="paint0_linear_2_79" x1="7.729" y1="39.631" x2="42.055" y2="5.889" gradientUnits="userSpaceOnUse"><stop stop-color="#0090C6"/><stop offset="1" stop-color="#1EDDD6"/></linearGradient></defs></svg>